<?xml version="1.0" encoding="UTF-8" standalone="no"?>
<svg
   width="62.692707"
   zoomAndPan="magnify"
   viewBox="0 0 47.01953 28.210939"
   height="37.614586"
   preserveAspectRatio="xMidYMid"
   version="1.0"
   id="svg10"
   xmlns="http://www.w3.org/2000/svg"
   xmlns:svg="http://www.w3.org/2000/svg">
  <defs
     id="defs5">
    <clipPath
       id="a176cbbef1">
      <path
         d="M 0.488281,0 H 19.296875 V 9.402344 H 0.488281 Z m 0,0"
         clip-rule="nonzero"
         id="path1" />
    </clipPath>
    <clipPath
       id="1ca49f648a">
      <path
         d="m 0.488281,18.808594 h 9.40625 v 9.402344 h -9.40625 z m 0,0"
         clip-rule="nonzero"
         id="path2" />
    </clipPath>
    <clipPath
       id="9d6bea3a92">
      <path
         d="m 19.296875,9.402344 h 9.40625 v 18.808594 h -9.40625 z m 0,0"
         clip-rule="nonzero"
         id="path3" />
    </clipPath>
    <clipPath
       id="cc4f637240">
      <path
         d="m 28.703125,0 h 9.402344 v 9.402344 h -9.402344 z m 0,0"
         clip-rule="nonzero"
         id="path4" />
    </clipPath>
    <clipPath
       id="d789e2b80e">
      <path
         d="m 38.105469,9.402344 h 9.402343 v 18.808594 h -9.402343 z m 0,0"
         clip-rule="nonzero"
         id="path5" />
    </clipPath>
  </defs>
  <g
     clip-path="url(#a176cbbef1)"
     id="g6"
     transform="translate(-0.48828101)">
    <path
       fill="#000000"
       d="M 0.488281,0 H 19.296875 V 9.402344 H 0.488281 Z m 0,0"
       fill-opacity="1"
       fill-rule="nonzero"
       id="path6" />
  </g>
  <g
     clip-path="url(#1ca49f648a)"
     id="g7"
     transform="translate(-0.48828101)">
    <path
       fill="#000000"
       d="m 0.488281,18.808594 h 9.40625 v 9.402344 h -9.40625 z m 0,0"
       fill-opacity="1"
       fill-rule="nonzero"
       id="path7" />
  </g>
  <g
     clip-path="url(#9d6bea3a92)"
     id="g8"
     transform="translate(-0.48828101)">
    <path
       fill="#000000"
       d="m 19.296875,9.402344 h 9.40625 v 18.808594 h -9.40625 z m 0,0"
       fill-opacity="1"
       fill-rule="nonzero"
       id="path8" />
  </g>
  <g
     clip-path="url(#cc4f637240)"
     id="g9"
     transform="translate(-0.48828101)">
    <path
       fill="#000000"
       d="m 28.703125,0 h 9.402344 v 9.402344 h -9.402344 z m 0,0"
       fill-opacity="1"
       fill-rule="nonzero"
       id="path9" />
  </g>
  <g
     clip-path="url(#d789e2b80e)"
     id="g10"
     transform="translate(-0.48828101)">
    <path
       fill="#000000"
       d="m 38.105469,9.402344 h 9.40625 v 18.808594 h -9.40625 z m 0,0"
       fill-opacity="1"
       fill-rule="nonzero"
       id="path10" />
  </g>
</svg>
