<svg xmlns="http://www.w3.org/2000/svg" xmlns:xlink="http://www.w3.org/1999/xlink" width="64" zoomAndPan="magnify" viewBox="0 0 48 48" height="64" preserveAspectRatio="xMidYMid meet" version="1.0"><defs><clipPath id="a176cbbef1"><path d="M 0.488281 0 L 19.296875 0 L 19.296875 9.402344 L 0.488281 9.402344 Z M 0.488281 0 " clip-rule="nonzero"/></clipPath><clipPath id="1ca49f648a"><path d="M 0.488281 18.808594 L 9.894531 18.808594 L 9.894531 28.210938 L 0.488281 28.210938 Z M 0.488281 18.808594 " clip-rule="nonzero"/></clipPath><clipPath id="9d6bea3a92"><path d="M 19.296875 9.402344 L 28.703125 9.402344 L 28.703125 28.210938 L 19.296875 28.210938 Z M 19.296875 9.402344 " clip-rule="nonzero"/></clipPath><clipPath id="cc4f637240"><path d="M 28.703125 0 L 38.105469 0 L 38.105469 9.402344 L 28.703125 9.402344 Z M 28.703125 0 " clip-rule="nonzero"/></clipPath><clipPath id="d789e2b80e"><path d="M 38.105469 9.402344 L 47.507812 9.402344 L 47.507812 28.210938 L 38.105469 28.210938 Z M 38.105469 9.402344 " clip-rule="nonzero"/></clipPath></defs><g clip-path="url(#a176cbbef1)"><path fill="#000000" d="M 0.488281 0 L 19.296875 0 L 19.296875 9.402344 L 0.488281 9.402344 Z M 0.488281 0 " fill-opacity="1" fill-rule="nonzero"/></g><g clip-path="url(#1ca49f648a)"><path fill="#000000" d="M 0.488281 18.808594 L 9.894531 18.808594 L 9.894531 28.210938 L 0.488281 28.210938 Z M 0.488281 18.808594 " fill-opacity="1" fill-rule="nonzero"/></g><g clip-path="url(#9d6bea3a92)"><path fill="#000000" d="M 19.296875 9.402344 L 28.703125 9.402344 L 28.703125 28.210938 L 19.296875 28.210938 Z M 19.296875 9.402344 " fill-opacity="1" fill-rule="nonzero"/></g><g clip-path="url(#cc4f637240)"><path fill="#000000" d="M 28.703125 0 L 38.105469 0 L 38.105469 9.402344 L 28.703125 9.402344 Z M 28.703125 0 " fill-opacity="1" fill-rule="nonzero"/></g><g clip-path="url(#d789e2b80e)"><path fill="#000000" d="M 38.105469 9.402344 L 47.511719 9.402344 L 47.511719 28.210938 L 38.105469 28.210938 Z M 38.105469 9.402344 " fill-opacity="1" fill-rule="nonzero"/></g></svg>